<svg width="61" height="61" viewBox="0 0 61 61" fill="none" xmlns="http://www.w3.org/2000/svg">
<mask id="mask0_7_89" style="mask-type:alpha" maskUnits="userSpaceOnUse" x="0" y="0" width="61" height="61">
<rect width="61" height="61" fill="#D9D9D9"/>
</mask>
<g mask="url(#mask0_7_89)">
<rect width="91" height="83" transform="translate(-13 -8)" fill="white"/>
<path d="M12.8945 31.3441C12.8945 36.702 17.2597 41.0454 22.6445 41.0454H37.2695C38.7652 41.0454 39.9778 39.8389 39.9778 38.3506V20.0259C39.9778 17.0493 37.5527 14.6363 34.5612 14.6363H15.6028C14.107 14.6363 12.8945 15.8428 12.8945 17.3311V31.3441Z" fill="#FFF1DA"/>
<path d="M39.2107 38.858C38.4749 39.022 37.7583 39.3257 37.1053 39.7501C35.404 40.8287 34.4143 42.3684 34.8947 43.1888C35.3751 44.0091 37.1437 43.7993 38.8449 42.7207C39.5067 42.3113 40.0947 41.7881 40.5725 41.1834C40.7942 40.8912 40.834 40.5271 40.6741 40.255L40.05 39.1893C39.8912 38.9163 39.5618 38.7865 39.2107 38.858Z" fill="#D5D6DB"/>
<path d="M34.9386 24.3097C34.4051 24.4287 33.8854 24.6491 33.4118 24.9568C32.1786 25.7387 31.4604 26.8551 31.8085 27.4495C32.1566 28.0439 33.4395 27.8916 34.6727 27.1097C35.1525 26.8127 35.5788 26.4332 35.9253 25.9946C36.0859 25.7829 36.1147 25.5192 35.9988 25.3218L35.5469 24.5502C35.4319 24.3523 35.1933 24.2579 34.9386 24.3097Z" fill="#D5D6DB"/>
<path d="M27.9976 24.919C27.8788 24.9058 27.7522 24.9373 27.6423 25.0071L24.7454 26.844C24.5031 26.9972 24.4061 27.2921 24.5291 27.503C24.5572 27.5513 24.5956 27.5926 24.6424 27.6244L31.7824 32.5208L41.4424 26.3956L27.9976 24.919Z" fill="#029BC5"/>
<path d="M58.5352 24.2266L32.2469 40.693L16.6942 46.8511L8.76249 48.4195L7.88986 46.9444L51.708 20.0252C53.014 19.2195 54.4684 18.7249 55.9249 18.5917C56.563 18.5368 57.193 18.5579 57.8002 18.6543C58.3386 18.7355 58.8494 18.8922 59.3168 19.1197C59.839 19.3774 60.833 19.4072 61.1547 19.9207C61.1558 19.9199 61.9152 22.2775 58.5352 24.2266Z" fill="#E1E6E9"/>
<path d="M32.5954 38.5143L21.2229 56.5535C21.0809 56.8068 21.1652 57.0903 21.4111 57.1868C21.562 57.2461 21.7466 57.2229 21.9017 57.1248L24.7964 55.2977C25.3532 54.9458 25.8462 54.4995 26.2449 53.9854L48.2999 28.1861L32.5954 38.5143Z" fill="#029BC5"/>
<path d="M3.89811 37.912C3.70842 37.8475 3.48265 37.8809 3.29209 38.0017L0.899279 39.518C0.573249 39.7245 0.443304 40.1213 0.608999 40.4047C0.640524 40.4585 0.681529 40.506 0.730712 40.545L7.43476 45.8874L14.4835 41.5066L3.89811 37.912Z" fill="#029BC5"/>
<path d="M9.6818 46.8506L6.07349 51.8786C6.02057 51.9508 6.03303 52.0419 6.10123 52.0812C6.15046 52.1098 6.21763 52.1044 6.27223 52.0683L8.50834 50.6584C8.52572 50.647 8.54143 50.6336 8.55443 50.6179L13.8268 44.2394L9.6818 46.8506Z" fill="#029BC5"/>
<path d="M57.3685 18.8711C56.7434 18.7712 56.0945 18.7498 55.4374 18.8073C54.7977 19.6972 54.3893 20.6968 54.2517 21.7065C54.242 21.9093 54.4061 22.0553 54.619 22.0325C54.685 22.0254 54.7506 22.0023 54.8102 21.9652L58.9312 19.3543C58.4491 19.1179 57.9231 18.9553 57.3685 18.8711Z" fill="#029BC5"/>
<path d="M48.3882 23.6723L51.0786 21.9815L53.5849 26.2226L50.8945 27.9133L48.3882 23.6723Z" fill="#D5D6DB"/>
<path d="M46.6955 25.3496C46.371 25.5539 46.2415 25.9467 46.4062 26.2268L46.6727 26.6806C46.8482 26.9536 47.2485 27.0015 47.567 26.7877C47.8703 26.5841 47.9927 26.2141 47.8465 25.9408L47.58 25.487C47.4153 25.2071 47.0194 25.1455 46.6955 25.3496Z" fill="#3A556A"/>
<path d="M44.2769 26.8439C43.953 27.0482 43.823 27.441 43.9877 27.7211L44.2547 28.1749C44.4302 28.4479 44.8305 28.4959 45.149 28.2821C45.4523 28.0784 45.5742 27.7084 45.4285 27.4351L45.1615 26.9813C44.9968 26.7015 44.6014 26.64 44.2769 26.8439Z" fill="#3A556A"/>
<path d="M41.8578 28.3385C41.5345 28.5432 41.405 28.9355 41.5697 29.2153L41.8362 29.6691C42.0117 29.9421 42.412 29.9901 42.7305 29.7763C43.0338 29.5726 43.1562 29.2026 43.01 28.9293L42.7435 28.4755C42.5788 28.1954 42.1823 28.1341 41.8578 28.3385Z" fill="#3A556A"/>
<path d="M39.4399 29.8328C39.116 30.0374 38.9869 30.4298 39.1513 30.7096L39.418 31.1634C39.5935 31.4364 39.9939 31.4844 40.3125 31.2706C40.6157 31.0669 40.7379 30.6969 40.5917 30.4236L40.3251 29.9698C40.1604 29.6898 39.7641 29.6284 39.4399 29.8328Z" fill="#3A556A"/>
<path d="M37.0219 31.3271C36.6979 31.5319 36.5686 31.9243 36.7332 32.2043L37 32.6583C37.1645 32.9382 37.5606 32.9995 37.8847 32.7952C38.2088 32.5909 38.3382 32.1985 38.1737 31.9186L37.9069 31.4646C37.7428 31.1845 37.3469 31.1228 37.0226 31.3267L37.0219 31.3271Z" fill="#3A556A"/>
<path d="M34.6037 32.8214C34.2796 33.0261 34.1505 33.4186 34.315 33.6986L34.5818 34.1526C34.7463 34.4324 35.1424 34.4937 35.4665 34.2895C35.7906 34.0852 35.92 33.6927 35.7556 33.4129L35.4888 32.9589C35.3247 32.6787 34.9287 32.6171 34.6044 32.821L34.6037 32.8214Z" fill="#3A556A"/>
<path d="M32.1853 34.3157C31.8613 34.5204 31.7321 34.9128 31.8967 35.1928L32.1635 35.6468C32.3284 35.9264 32.7247 35.987 33.0484 35.7826C33.3717 35.5783 33.5008 35.1867 33.3371 34.9072L33.0703 34.4532C32.9058 34.1732 32.5098 34.1116 32.1853 34.3157Z" fill="#3A556A"/>
<path d="M29.767 35.8099C29.443 36.0146 29.3138 36.4071 29.4784 36.6871L29.7452 37.141C29.9101 37.4207 30.3064 37.4813 30.6301 37.2768C30.9533 37.0726 31.0825 36.681 30.9188 36.4014L30.6519 35.9475C30.4875 35.6674 30.0914 35.6058 29.767 35.8099Z" fill="#3A556A"/>
<path d="M27.3489 37.3041C27.0248 37.5088 26.8956 37.9013 27.0601 38.1813L27.327 38.6353C27.4919 38.9149 27.8881 38.9756 28.2119 38.771C28.5352 38.5668 28.6643 38.1752 28.5005 37.8957L28.2337 37.4417C28.0692 37.1617 27.6731 37.1001 27.3489 37.3041Z" fill="#3A556A"/>
<path d="M24.9298 38.7988C24.6057 39.0031 24.4763 39.3955 24.6408 39.6754L24.6412 39.6759L24.908 40.13C25.0729 40.4095 25.4692 40.4702 25.7929 40.2657C26.1161 40.0615 26.2453 39.6699 26.0816 39.3904L25.8147 38.9363C25.6503 38.6563 25.2542 38.5947 24.9298 38.7988Z" fill="#3A556A"/>
<path d="M22.5123 40.2926C22.1882 40.4969 22.0588 40.8894 22.2233 41.1692L22.2237 41.1698L22.4905 41.6238C22.6554 41.9034 23.0517 41.9641 23.3754 41.7595C23.6987 41.5554 23.8278 41.1637 23.6641 40.8842L23.3972 40.4302C23.2327 40.1502 22.8366 40.0886 22.5123 40.2926Z" fill="#3A556A"/>
</g>
</svg>
