<svg width="385" height="12" viewBox="0 0 385 12" fill="none" xmlns="http://www.w3.org/2000/svg">
<mask id="mask0_202_1849" style="mask-type:alpha" maskUnits="userSpaceOnUse" x="0" y="0" width="385" height="12">
<rect width="385" height="12" fill="#C4C4C4"/>
</mask>
<g mask="url(#mask0_202_1849)">
<path d="M57.8281 -2.53796L58.7691 -2.69614L56.938 -2.92292L57.8158 -3.08892C58.6959 -3.0874 59.8363 -2.83866 60.4568 -2.97083C60.5327 -3.09879 59.5743 -3.13986 59.3297 -3.24181C59.1133 -3.34631 58.9367 -3.45013 58.8019 -3.55202C59.2813 -3.55092 59.8082 -3.52628 60.3516 -3.47953C61.0824 -3.40319 61.7992 -3.36607 62.423 -3.37229C63.6985 -3.35167 64.9307 -3.37224 66.3174 -3.36771L65.856 -3.67567L67.6432 -3.60362C67.8326 -3.58016 68.0584 -3.61789 68.2445 -3.58887C69.7933 -3.34329 70.4487 -3.47711 71.1922 -3.58807C71.3447 -3.61678 71.5283 -3.63822 71.7383 -3.65182C73.8044 -3.59299 75.6676 -3.24878 77.5283 -3.07207C77.8785 -3.02695 78.2144 -2.96904 78.5122 -2.90243C79.1594 -2.77295 79.8793 -2.66724 80.6061 -2.59497C81.3328 -2.52269 82.0432 -2.48616 82.6723 -2.48871C84.0635 -2.49157 85.6352 -2.40593 87.2354 -2.24008C87.7112 -2.18545 88.1874 -2.14941 88.6335 -2.13426C89.0797 -2.11911 89.486 -2.12517 89.8264 -2.15207L90.9083 -1.97627C91.3773 -2.04761 91.9719 -2.08675 92.6562 -2.09131C93.3405 -2.09587 94.1 -2.06577 94.8888 -2.00283C95.7294 -1.93455 96.5833 -1.88852 97.4554 -1.81634C99.257 -1.67832 101.01 -1.59392 102.661 -1.56575C105.119 -1.48225 107.521 -1.4177 110.001 -1.31361C111.552 -1.26336 113.064 -1.23573 114.527 -1.23085C116.279 -1.21119 118.174 -1.11605 120.121 -0.950018C120.029 -0.794239 119.175 -0.840261 118.602 -0.845533C116.753 -0.871425 114.862 -0.938519 112.96 -0.988921C112.103 -1.0086 111.27 -1.01605 110.465 -1.01122C109.12 -1.01768 107.702 -1.05919 106.235 -1.13504C103.918 -1.2185 101.675 -1.25861 99.5287 -1.25498C99.3605 -1.24881 99.2063 -1.23788 99.0689 -1.22236C99.0402 -1.20893 99.0345 -1.19198 99.0524 -1.17315C99.0703 -1.15433 99.1112 -1.13424 99.1711 -1.11484C99.231 -1.09543 99.308 -1.07735 99.3946 -1.06231C99.4812 -1.04728 99.5747 -1.0358 99.6659 -1.02897C100.518 -0.9234 101.434 -0.810013 102.238 -0.794063C102.269 -0.792869 102.302 -0.790148 102.335 -0.78609C102.367 -0.782033 102.399 -0.776742 102.427 -0.770603C104.227 -0.54773 105.706 -0.585445 107.108 -0.549184C109.435 -0.451184 111.679 -0.405408 113.804 -0.412547C114.126 -0.412062 114.473 -0.399322 114.833 -0.374789C117.059 -0.275339 119.141 -0.264217 120.981 -0.341923C121.738 -0.361611 122.442 -0.405805 123.255 -0.406544C123.757 -0.409586 124.193 -0.437788 124.538 -0.489463C124.883 -0.541139 125.13 -0.615218 125.264 -0.707246C125.607 -0.658794 125.956 -0.615613 126.305 -0.57822C126.514 -0.556839 126.715 -0.551159 126.866 -0.562348C127.017 -0.573536 127.108 -0.600756 127.121 -0.638501C127.183 -0.744209 126.706 -0.797294 126.293 -0.842561C126.542 -0.865231 126.823 -0.878568 127.129 -0.88225C128.853 -0.906404 130.703 -0.877896 132.637 -0.797352C134.138 -0.700943 135.337 -0.779413 136.917 -0.643457C137.106 -0.619996 137.262 -0.65443 137.437 -0.662698C137.891 -0.706236 138.458 -0.716022 139.087 -0.6912C139.715 -0.666377 140.388 -0.607695 141.046 -0.520245C141.865 -0.759166 143.635 -0.486219 144.942 -0.461688C145.345 -0.340185 144.883 -0.361545 144.863 -0.328164C144.843 -0.294782 144.863 -0.328171 144.705 -0.347722C143.4 -0.175652 141.612 -0.138132 139.592 -0.240435C139.219 -0.240009 138.863 -0.232171 138.528 -0.216993C138.021 -0.19551 137.449 -0.197655 136.837 -0.223334C136.169 -0.242193 135.555 -0.233236 135.026 -0.196896C134.721 -0.197488 134.463 -0.179283 134.276 -0.143957C134.089 -0.108631 133.98 -0.0573284 133.957 0.00518023C134.161 0.0533705 134.386 0.0974645 134.625 0.135713C135.873 0.28673 137.117 0.34924 138.113 0.310944C139.847 0.244959 141.91 0.309349 143.753 0.286823C144.999 0.277698 146.325 0.303691 147.706 0.36432C147.706 0.36432 147.67 0.425519 147.666 0.431082C147.83 0.45758 148.001 0.478839 148.171 0.493644C148.171 0.493644 148.171 0.493645 148.188 0.465827C148.112 0.439112 148.01 0.413982 147.892 0.393344L147.482 0.342512C147.76 0.329283 148.021 0.289898 148.312 0.313962C148.924 0.358668 149.51 0.377542 150.033 0.369462C150.556 0.361381 151.006 0.326508 151.356 0.266939C151.976 0.19059 152.746 0.155872 153.619 0.165022C154.287 0.156686 154.931 0.138772 155.548 0.111367C155.548 0.111367 155.588 0.0446111 155.88 0.00912881C155.603 -0.0346331 155.315 -0.0703692 155.028 -0.0964382C153.778 -0.161568 152.526 -0.221133 151.299 -0.26566C150.846 -0.270471 150.421 -0.26301 150.032 -0.243424C148.952 -0.220505 147.738 -0.253035 146.462 -0.339115C146.462 -0.339115 146.21 -0.370393 146.083 -0.386033C146.442 -0.532787 147.676 -0.385869 148.175 -0.485254C148.479 -0.483446 149.014 -0.470948 148.996 -0.497113C148.954 -0.532026 148.949 -0.564463 148.981 -0.592091C149.013 -0.61972 149.082 -0.641861 149.181 -0.656921C149.281 -0.671984 149.409 -0.679596 149.557 -0.67921C149.706 -0.678822 149.87 -0.670442 150.038 -0.654682C151.443 -0.569418 152.767 -0.545706 153.928 -0.585001C154.368 -0.584244 154.861 -0.558972 155.298 -0.55265C155.565 -0.545034 155.809 -0.549269 156.017 -0.565121C157.072 -0.681863 158.492 -0.690389 160.064 -0.589418C160.823 -0.553115 161.533 -0.548262 162.156 -0.575103C162.6 -0.579906 162.788 -0.496907 163.104 -0.457806L164.444 -0.375382L162.722 -0.272102C163.09 -0.0354174 163.383 0.0426247 163.984 0.0573704C164.861 0.0796373 165.716 0.0896969 166.542 0.087487C167.153 0.0855414 167.658 0.034571 168.485 0.125104C168.631 0.139871 168.772 0.144649 168.884 0.138642C169.853 0.0582657 171.019 0.0398196 172.304 0.0845627C172.97 -0.0659458 174.103 0.0803877 175.151 0.198292C175.49 0.0849194 174.877 0.0328776 174.511 -0.0362977C175.388 -0.0292163 176.271 -0.0332602 177.177 -0.0167062C177.449 -0.0227315 177.76 -0.0124229 178.086 0.0134106C178.411 0.0392431 178.743 0.0798925 179.054 0.132182C179.205 0.165969 179.388 0.191396 179.564 0.203188C179.74 0.214977 179.896 0.212227 179.999 0.195506C180.469 0.146192 181.221 0.191613 181.609 0.108313C181.747 0.0891562 181.945 0.0864818 182.166 0.100759C182.387 0.115034 182.618 0.145336 182.817 0.186233C182.599 0.198993 182.405 0.219086 182.24 0.24607C181.645 0.333725 181.864 0.480188 182.618 0.693119C183.778 0.681409 184.962 0.684733 186.036 0.644603C186.635 0.608579 187.368 0.61984 188.155 0.677125C188.941 0.734407 189.748 0.835442 190.486 0.968864C190.753 1.02017 191.058 1.0557 191.339 1.06841C191.62 1.08112 191.858 1.07007 192.004 1.03745C192.096 0.999727 192.124 0.951984 192.087 0.898361L191.329 0.804525C191.329 0.804525 191.359 0.754453 191.366 0.743326L192.455 0.734912C193.031 0.73462 193.632 0.74937 194.177 0.745168C194.977 0.717224 195.891 0.732799 196.861 0.790928C197.756 0.850535 198.636 0.895589 199.492 0.925695C200.321 0.956682 200.922 0.857894 201.71 0.842118C202.307 0.830226 202.963 0.842935 203.654 0.879746C204.847 0.945035 205.942 0.945157 206.839 0.880098C207.885 1.23062 208.393 1.28761 209.364 1.1929L209.821 1.16584L209.946 1.24102L210.294 1.22449C210.947 1.20976 211.6 1.19504 212.281 1.18979C213.227 1.22232 214.25 1.30984 215.248 1.4438C215.437 1.46726 215.695 1.54697 215.861 1.60937C216.028 1.67178 216.39 1.86004 216.657 1.98259C216.366 2.07206 216.045 2.15761 215.814 2.26046C215.791 2.27803 215.793 2.29898 215.821 2.32163C215.848 2.34428 215.9 2.36799 215.972 2.39087C216.044 2.41374 216.135 2.43513 216.236 2.45333C216.337 2.47153 216.447 2.48602 216.556 2.49565C216.768 2.51639 216.977 2.53021 217.175 2.53656C218.151 2.5475 219.085 2.53937 219.969 2.51224C220.291 2.47398 220.733 2.47034 221.224 2.50192C221.715 2.5335 222.226 2.59848 222.678 2.68655C223.834 2.63368 225.178 2.6493 226.616 2.73233C228.137 2.68183 229.974 2.78396 231.395 2.67331C231.362 2.72895 231.509 2.82473 231.713 2.87992C232.036 2.96375 232.403 3.04144 232.797 3.1097L235.802 3.24297C235.914 3.3115 236.054 3.38087 236.221 3.45018C236.335 3.50493 236.534 3.55851 236.775 3.59955C237.017 3.64059 237.282 3.66588 237.514 3.67005C238.112 3.69035 238.613 3.64495 239.326 3.75713C238.228 3.86318 236.747 3.84909 235.148 3.71738C233.645 3.6172 232.199 3.56714 230.864 3.56904C230.424 3.56828 229.844 3.57413 229.707 3.63473C229.402 3.80599 228.605 3.77892 227.675 3.74733C226.944 3.71275 226.277 3.71663 225.727 3.75865C225.178 3.80068 224.763 3.87965 224.515 3.98907C224.453 4.09477 224.603 4.185 225.244 4.24651L227.91 4.49316C228.303 4.46145 228.676 4.42391 229.028 4.3807C229.619 4.32331 230.35 4.30756 231.163 4.33467C231.975 4.36178 232.848 4.43102 233.713 4.53701C234.155 4.59175 234.597 4.64649 234.917 4.62048C235.199 4.5906 235.458 4.55483 235.692 4.51343C235.74 4.48568 235.759 4.45374 235.749 4.41885C235.919 4.43507 236.089 4.45617 236.254 4.48141C237.57 4.77585 238.59 4.77075 239.516 4.69438C239.767 4.67168 239.958 4.63559 240.212 4.60733C240.466 4.57906 240.555 4.54238 240.786 4.55305C242.626 4.64962 243.156 4.32709 244.708 4.34004C244.783 4.32744 244.83 4.30861 244.844 4.28527C244.858 4.26194 244.838 4.23486 244.787 4.20652C244.677 4.18093 244.55 4.15893 244.418 4.14253C244.286 4.12613 244.152 4.11587 244.029 4.11268C243.315 4.07129 242.685 4.08398 242.246 4.14858C241.935 4.17498 241.605 4.19602 241.259 4.21157L239.706 3.7445C241.211 3.78732 242.634 3.78704 243.943 3.74367C244.228 3.71931 244.712 3.76127 245.114 3.76925L248.07 3.8129C248.678 3.81652 249.196 3.7433 250.043 3.91398C250.043 3.91398 250.603 3.94151 250.752 3.9182C250.902 3.8949 251.564 3.74995 251.959 3.65553C252.417 3.68245 253.052 3.75509 253.337 3.73074C253.836 3.67092 254.268 3.59423 254.625 3.50205L256.411 3.63364C256.409 3.75054 256.344 3.86051 256.216 3.96189C256.077 4.05966 256.082 4.17702 256.23 4.30437C256.378 4.43173 256.666 4.56546 257.07 4.69465L258.833 5.37885C259.121 5.42467 259.427 5.45551 259.712 5.46719C259.996 5.47887 260.243 5.47082 260.421 5.44413C261.179 5.3649 262.029 5.30296 262.788 5.22373C263.767 5.34494 263.515 5.54072 264.227 5.71245L266.531 5.99788C266.883 6.26238 267.241 6.51575 266.172 6.6043C265.959 6.61979 266.103 6.72114 265.909 6.76279C266.74 6.96129 267.653 7.02071 268.496 7.14297C268.828 7.23089 269.106 7.32397 269.316 7.41769C269.546 7.55882 270.014 7.70297 270.617 7.81904C271.22 7.9351 271.911 8.01375 272.54 8.03801C273.596 8.11232 274.676 8.22392 275.734 8.36782C276.095 8.41785 276.466 8.45432 276.822 8.47473C277.178 8.49515 277.511 8.49906 277.798 8.48619C278.821 8.46353 279.687 8.38562 280.34 8.25752C280.985 8.14881 281.855 8.09641 282.87 8.10508C284.606 8.32013 284.957 8.64418 286.007 8.9296L284.192 8.9616C284.126 9.07287 284.247 9.21317 283.503 9.2106C282.759 9.20803 283.136 9.3145 283.377 9.42201C283.462 9.4761 283.628 9.53173 283.847 9.5795C284.066 9.62726 284.324 9.66422 284.577 9.68412L286.123 9.82173C286.67 9.87411 287.201 9.89647 287.655 9.88637C288.109 9.87627 288.47 9.8341 288.698 9.76449C288.96 9.69838 289.32 9.65367 289.759 9.63308C290.317 9.57916 290.776 9.49896 291.119 9.39552L293.301 9.54623C293.393 9.44228 293.693 9.36939 294.149 9.3399C294.605 9.31039 295.189 9.32608 295.802 9.38432L297.273 9.47682C298.907 9.57774 299.266 9.54452 299.744 9.25145L297.784 8.72799C298.069 8.59011 298.344 8.46892 298.619 8.34772C298.131 8.17526 297.48 8.01215 296.731 7.87494C296.032 7.72751 295.314 7.58472 294.578 7.44712C293.781 7.30651 292.938 7.18425 291.948 7.02574C291.775 6.97447 291.524 6.88363 291.203 6.79612C290.882 6.71107 290.546 6.6277 290.199 6.54634C290.265 6.43507 290.324 6.33493 290.197 6.20576C290.807 6.24697 291.437 6.31906 292.031 6.41551C292.625 6.51197 293.163 6.62976 293.597 6.75827C293.67 6.78105 293.76 6.80246 293.86 6.82104C293.96 6.83961 294.068 6.85493 294.177 6.86594C295.249 6.9449 295.761 7.10985 296.285 7.3121C296.638 7.41549 297.093 7.50731 297.586 7.57481C298.534 7.69212 299.461 7.8428 300.367 7.97289C300.644 8.01623 300.932 8.05191 301.219 8.07845C302.166 8.16284 303.118 8.28084 304.029 8.42645C304.326 8.46346 304.611 8.51243 304.86 8.56928C305.11 8.62613 305.316 8.68919 305.462 8.75322C305.236 8.82336 305.115 8.9119 305.104 9.0135C305.064 9.08026 305.729 9.21636 306.044 9.31501C306.358 9.41365 305.742 9.36717 305.532 9.3771C304.674 9.39618 304.515 9.43617 305.029 9.65512C305.2 9.72396 305.315 9.79285 305.364 9.85749C305.413 9.92213 305.396 9.98116 305.314 10.0309C305.192 10.2367 304.821 10.4058 304.566 10.6071C304.962 10.7397 305.624 10.8814 305.696 11.0456C305.73 11.082 305.804 11.1206 305.91 11.1586C306.016 11.1965 306.153 11.2329 306.311 11.2651C306.727 11.3346 307.105 11.4177 307.415 11.508C307.726 11.5983 307.962 11.6933 308.104 11.7857C308.15 11.824 308.262 11.8645 308.418 11.8993C308.573 11.934 308.76 11.9604 308.942 11.9731C309.158 11.9887 309.352 11.9867 309.484 11.9674C309.615 11.948 309.673 11.913 309.647 11.8694C309.652 11.7874 309.623 11.702 309.561 11.6139C309.597 11.5527 309.634 11.4915 309.49 11.3901C310.137 11.4271 310.817 11.5012 311.455 11.6045C312.092 11.7077 312.664 11.836 313.108 11.9756C313.599 12.1199 314.051 12.2715 314.595 12.4404C314.483 12.6295 314.483 12.6295 315.64 12.964L321.779 13.1271L323.037 13.3486C324.21 13.5417 324.489 13.5284 325.226 13.4286L325.722 13.3348C326.764 13.4638 327.964 13.6124 328.615 13.3706C328.827 13.5282 328.965 13.5811 328.917 13.6051C328.606 13.8376 328.065 14.0349 327.317 14.1892C327.126 14.2253 326.992 14.2803 326.769 14.3125C326.052 14.4941 325.886 14.7747 326.304 15.097C326.512 15.2396 326.814 15.3856 327.2 15.5303C326.635 15.7312 325.886 15.8976 324.975 16.0252C324.201 16.1238 323.564 16.2559 323.082 16.4177C322.649 16.5809 322 16.7035 321.173 16.7786C320.754 16.8105 320.448 16.8735 320.286 16.9613C320.238 17.1989 320.348 17.4533 320.616 17.7188C320.667 17.7996 320.81 17.8869 321.035 17.9738C321.259 18.0607 321.56 18.1449 321.912 18.2197C321.912 18.2197 322.082 18.2766 322.163 18.3106C322.231 18.5983 321.977 18.8519 321.417 19.0543C321.326 19.1117 321.138 19.1532 320.875 19.1742C320.612 19.1953 320.283 19.1951 319.923 19.1738C319.164 19.1395 318.455 19.1353 317.721 19.116C316.93 19.0888 316.233 19.1102 315.704 19.1782C315.175 19.2461 314.832 19.3579 314.713 19.502C314.706 19.5427 314.683 19.5818 314.644 19.6188C314.622 19.6379 314.61 19.6584 314.608 19.68L316.294 20.1516L314.387 20.3393C314.274 20.5285 315.19 20.6419 315.649 20.7823L315.365 20.8607C315 20.905 314.508 20.8202 314.063 20.771L313.621 20.7163L313.568 20.8053C313.293 20.9265 312.289 20.7903 311.898 20.8791C311.506 20.968 311.786 21.0683 312.372 21.1648C312.78 21.2366 313.218 21.2938 313.653 21.3322C314.088 21.3706 314.509 21.3891 314.884 21.3864C315.108 21.3769 315.294 21.3552 315.43 21.3226C316.222 21.184 317.097 21.0648 318.048 20.966C318.777 20.8772 319.69 20.8395 320.723 20.8554C321.026 20.8487 321.391 20.8697 321.755 20.9147C322.119 20.9598 322.457 21.026 322.712 21.1017L323.246 21.1142C323.246 21.1142 323.539 21.1922 323.498 21.205C323.294 21.4362 323.531 21.7189 324.172 22.0111L323.614 22.0376C322.817 22.0105 323.323 22.1866 323.203 22.2734C322.637 22.257 321.901 22.1837 321.632 22.2938L321.231 22.2858L321.388 22.3054L321.579 22.2693L322.329 22.4338C321.974 22.4615 321.716 22.4953 321.403 22.5102C321.229 22.5231 321.091 22.546 320.997 22.5774C320.903 22.6088 320.854 22.6481 320.854 22.693C320.854 22.762 320.761 22.8201 320.582 22.8617C320.403 22.9033 320.145 22.9271 319.832 22.9307C319.458 22.9322 319.244 23.0072 319.025 23.0339L319.977 23.4862C319.977 23.4862 319.503 23.4275 319.761 23.5072L319.794 23.4516L320.371 23.5648C320.786 23.6641 321.077 23.6881 321.323 23.617C321.568 23.5459 321.512 23.6405 321.63 23.6133C321.587 23.6856 321.32 23.7361 321.091 23.7794C320.826 23.8134 320.527 23.8385 320.199 23.8541C320.79 24.1722 320.819 24.1816 319.955 24.2658C319.092 24.35 319.39 24.4765 318.668 24.4945C317.945 24.5126 318.767 24.7278 319.25 24.7697C319.609 24.7973 319.974 24.8403 320.321 24.8957C320.669 24.9511 320.99 25.0176 321.263 25.0906L321.118 25.3354C320.905 25.3152 320.692 25.2888 320.486 25.2572C319.786 25.1228 319.15 24.9962 318.527 25.0743L318.824 25.2604L316.651 25.1525C316.707 25.2919 317.038 25.4507 317.575 25.5953C317.494 25.6748 317.444 25.7585 317.426 25.8457C317.39 25.9069 317.176 25.8684 317.036 25.875C316.539 25.8853 316.13 25.9267 315.847 25.9958C315.564 26.0648 315.414 26.1594 315.412 26.2711C315.356 26.3656 316.121 26.5619 316.599 26.5554C317.793 26.5743 319.084 26.6471 320.403 26.7698C321.207 26.7857 321.32 26.537 322.643 26.7068C322.669 26.8216 322.5 26.9146 322.16 26.9717C321.821 27.0288 321.33 27.0468 320.761 27.0231C321.084 27.2782 322.875 27.3447 322.954 27.6113C322.508 27.5924 322.032 27.5481 321.571 27.4827C321.111 27.4173 320.682 27.3331 320.329 27.2383C320.252 27.215 320.156 27.1934 320.05 27.1757C319.944 27.158 319.83 27.1447 319.719 27.137C319.609 27.1293 319.506 27.1274 319.419 27.1316C319.332 27.1358 319.264 27.1459 319.222 27.161C319.47 27.2574 319.743 27.3688 320.054 27.473C320.365 27.5772 320.44 27.6223 320.664 27.6442C322.337 27.8514 323.133 28.2246 324.58 28.4696C324.959 28.5165 325.006 28.6657 324.677 28.6488C324.365 28.632 324.081 28.6342 323.859 28.6552C323.637 28.6762 323.486 28.7152 323.421 28.7679C323.178 28.8293 322.876 28.8782 322.521 28.9133C324.006 29.2963 325.776 29.6347 327.665 29.8968C328.023 29.9486 328.396 29.9801 328.73 29.9869C329.785 29.9872 330.904 30.0176 332.065 30.0774C332.477 30.0937 332.858 30.0922 333.186 30.0729C334.264 30.0272 335.12 30.1273 335.901 30.4092L337.195 30.8561C337.152 30.9284 336.935 31.009 336.768 31.1197L337.779 31.3584L345.492 30.8087L347.04 31.3409L349.261 31.3113C349.431 31.3267 349.602 31.3479 349.766 31.3739C350.215 31.531 350.566 31.682 351.053 31.8319C351.54 31.9818 352.411 32 353.017 32.1767C353.624 32.3534 354.232 32.357 354.983 32.462C355.054 32.5988 354.981 32.7219 354.769 32.8236C354.7 32.9405 354.318 33.0127 354.252 33.1239C354.259 33.2364 354.118 33.3319 353.84 33.4017C353.561 33.4715 353.156 33.5135 352.66 33.5239C351.27 33.7633 349.594 33.9338 347.683 34.0302C347.515 34.0372 347.376 34.0534 347.274 34.0778C347.172 34.1022 347.11 34.1342 347.091 34.1719C347.093 34.281 346.966 34.3753 346.718 34.4479C346.47 34.5205 346.107 34.5695 345.656 34.5914C345.536 34.5958 345.446 34.6095 345.396 34.6308C345.225 34.6445 345.1 34.6708 345.034 34.7071C344.968 34.7435 344.963 34.7886 345.018 34.8381C345.074 34.8877 345.189 34.94 345.353 34.99C345.516 35.04 345.722 35.086 345.951 35.1235C346.283 35.1841 346.622 35.242 346.966 35.2971C346.946 35.3305 346.604 35.3359 346.654 35.3659C346.789 35.4619 346.821 35.5519 346.746 35.6286C346.671 35.7054 346.492 35.7668 346.223 35.8082L348.066 36.5859C349.185 36.6936 350.283 36.8763 351.151 37.0993C351.152 37.1358 351.102 37.1664 351.006 37.1881C350.91 37.2097 350.771 37.2216 350.603 37.2226C350.153 37.2385 349.728 37.2695 349.243 37.2871C348.947 37.3002 348.7 37.3291 348.518 37.3721C348.335 37.4151 348.22 37.4714 348.18 37.5376L349.262 37.8269C348.916 37.8974 348.658 37.9312 348.429 37.9745C348.559 38.0655 348.782 38.1595 349.081 38.2494C349.381 38.3393 349.748 38.4226 350.155 38.4929C350.264 38.5074 350.376 38.518 350.483 38.5241C350.59 38.5301 350.69 38.5315 350.778 38.5282C351.616 38.429 352.597 38.6042 353.549 38.7699C354.502 38.9356 355.019 39.0355 355.722 39.1644L357.067 39.1817C357.407 39.2427 357.711 39.3144 357.954 39.3912C358.197 39.4679 358.372 39.5475 358.465 39.6236C358.393 39.746 357.755 39.679 357.375 39.6916C356.472 39.7678 355.286 39.7515 354.013 39.6455C353.697 39.6064 353.374 39.638 353.066 39.6417C352.404 39.657 351.767 39.6818 351.159 39.716C350.758 39.7479 350.384 39.7873 350.038 39.834C349.946 39.9898 351.4 40.1101 350.575 40.1871C350.859 40.2223 350.965 40.2713 351.111 40.2536C352.047 40.3547 352.969 40.4047 353.771 40.3978C355.309 40.3763 357.055 40.4473 358.867 40.6049C360.822 40.7683 362.698 40.8368 364.339 40.805C364.965 40.8032 365.663 40.8366 366.382 40.9028C367.232 40.9945 368.075 41.0521 368.858 41.072C369.117 41.0727 369.405 41.0883 369.7 41.1175C369.995 41.1468 370.287 41.1888 370.554 41.2403C370.531 41.2792 370.277 41.3075 370.333 41.3264C371.143 41.6179 371.472 41.9213 372.719 42.2191C373.571 42.3246 374.55 42.4458 375.107 42.3059C375.665 42.1659 375.465 42.0456 374.356 41.6872C374.596 41.6821 374.886 41.6988 375.175 41.7345C375.463 41.7703 375.732 41.8227 375.934 41.8827L376.893 42.1509L377.758 42.4072C377.682 42.5352 377.623 42.6353 377.56 42.7411C377.461 42.8533 377.57 42.99 377.871 43.1319C378.052 43.2093 378.21 43.2868 378.344 43.3636C378.884 43.6707 379.041 43.961 378.796 44.2019C378.326 44.5483 377.672 44.867 376.842 45.1543C375.964 45.4338 375.484 45.7864 374.762 46.0911C374.393 46.2298 373.945 46.3541 373.423 46.4627C372.433 46.7044 371.348 46.9343 370.354 47.1815C369.36 47.4286 368.238 47.6062 367.135 47.8099C365.492 48.0517 363.716 48.2605 361.817 48.4352C360.642 48.5883 359.435 48.7374 358.348 48.9134C357.064 49.1117 355.556 49.2541 353.861 49.337C352.364 49.4363 351.026 49.5832 349.874 49.7748C349.753 49.7956 349.657 49.8219 349.59 49.8532C349.383 50.0486 348.801 50.1863 347.934 50.2453C347.987 50.3025 348.054 50.3607 348.136 50.4196C348.256 50.4898 348.281 50.5554 348.208 50.6081C348.134 50.6607 347.966 50.698 347.724 50.7149C347.031 50.7633 346.454 50.8455 346.021 50.9579C345.862 50.986 345.763 51.0271 345.733 51.0775C345.703 51.1279 345.743 51.1861 345.85 51.2472C345.944 51.31 345.951 51.3678 345.869 51.4131C345.788 51.4585 345.623 51.4892 345.394 51.5013C344.807 51.5608 344.179 51.6086 343.513 51.6446C342.096 51.7238 340.448 51.7228 338.669 51.6418C338.479 51.6183 338.289 51.6544 338.068 51.627C336.809 51.5362 335.64 51.5221 334.703 51.5865C333.604 51.6116 332.454 51.6066 331.295 51.6184C329.621 51.6105 328.076 51.6583 326.704 51.7604C325.136 51.6617 324.255 51.8333 322.931 51.8366C321.709 51.8542 320.551 51.8964 319.468 51.963C317.721 52.0512 315.981 52.1283 314.259 52.2316C312.644 52.2808 311.157 52.3749 309.823 52.5123C309.312 52.5743 308.386 52.4777 308.038 52.6077C307.69 52.7378 306.987 52.7224 306.42 52.7656L304.628 52.8722C304.32 52.8975 303.981 52.9136 303.617 52.9201C301.952 52.9288 300.798 53.1025 299.252 53.1379L299.094 53.1184C296.349 53.3765 293.208 53.5182 289.763 53.5393C287.751 53.6185 285.55 53.6147 283.415 53.6727C282.905 53.7888 281.702 53.6457 281.064 53.7517C280.425 53.8577 279.381 53.7883 278.558 53.8057C277.734 53.8231 276.929 53.8667 276.049 53.8652C275.284 53.8657 274.639 53.913 274.171 54.0029C273.103 54.1515 271.802 54.2388 270.324 54.261C268.37 54.2996 266.522 54.3873 264.534 54.368C264.562 54.4763 264.44 54.5684 264.181 54.6349C263.921 54.7014 263.533 54.7398 263.056 54.7463C260.93 54.7876 259.003 54.8952 256.849 54.9271L256.273 54.9274L249.831 54.9895C248.096 55.0015 246.424 55.0214 244.653 55.035C243.99 54.9529 243.974 55.0943 243.516 55.0673C243.388 54.9977 243.236 54.967 243.011 55.0048L242.961 55.0882L235.61 55.1989C232.732 55.2799 229.704 55.3042 226.553 55.2716C225.805 55.2798 225.107 55.3074 224.471 55.3541C223.88 55.3711 223.265 55.3787 222.627 55.3766C221.766 55.3556 220.924 55.345 220.105 55.3448C217.951 55.3767 215.691 55.3595 213.332 55.3362C210.974 55.3128 209.187 55.3543 207.088 55.3511C205.667 55.3482 204.252 55.3342 202.78 55.3013C202.078 55.2859 201.212 55.2026 200.485 55.1722C199.757 55.1418 199.52 55.1423 199.423 55.1901C199.107 55.3241 198.311 55.2374 197.675 55.2244C196.434 55.2021 196.258 55.1564 195.921 54.8101L197.443 54.7C197.816 54.6645 198.286 54.6583 198.806 54.6819C199.326 54.7055 199.88 54.7582 200.413 54.835C200.623 54.8678 200.843 54.8938 201.059 54.9114C201.276 54.929 201.485 54.9378 201.674 54.9374C203.21 54.9186 204.725 54.8792 206.201 54.8471L206.417 54.826L206.43 54.5172C206.235 54.4868 206.032 54.4618 205.83 54.4429L198.426 54.2425C196.727 54.1933 194.963 54.0823 193.295 54.037C191.628 53.9917 190.729 53.964 189.435 53.9172C188.889 53.8906 188.333 53.8556 187.769 53.8124C187.802 53.7827 187.821 53.751 187.825 53.7178C187.855 53.6678 187.895 53.601 187.655 53.5474C187.394 53.4719 187.045 53.4073 186.678 53.3667C186.333 53.3399 185.999 53.3247 185.688 53.3217C184.186 53.2958 182.471 53.1327 180.908 52.8671L180.363 53.0444C178.016 52.9448 175.634 52.8468 173.182 52.7522C172.691 52.7264 172.176 52.6769 171.675 52.6074C171.139 52.5409 170.645 52.4021 170.08 52.3262C169.522 52.2715 168.967 52.2289 168.427 52.1991C168.573 52.1535 168.766 52.117 168.999 52.0909C169.229 52.0817 169.396 52.0532 169.477 52.0095C169.558 51.9658 169.548 51.9092 169.448 51.8479C169.274 51.7426 169.197 51.6435 169.577 51.6309C169.928 51.6069 170.18 51.5549 170.301 51.4811C170.423 51.4073 170.41 51.3148 170.264 51.2144C170.2 51.1557 170.155 51.0982 170.129 51.0424L169.971 51.0228C169.45 50.815 168.411 50.7399 167.664 50.5699C167.312 50.5205 166.947 50.4922 166.628 50.4892C165.802 50.4527 164.998 50.4367 164.144 50.3907C163.737 50.3695 163.31 50.3309 162.89 50.2772C162.29 50.2029 162.227 50.1951 161.879 49.925C162.42 49.9297 162.848 49.8894 163.093 49.8108C163.337 49.7322 163.381 49.6202 163.219 49.4938C162.773 49.2175 162.301 48.9263 160.283 48.73C160.941 48.7203 161.575 48.7011 162.181 48.6724C162.357 48.6663 162.489 48.646 162.559 48.6143C162.629 48.5826 162.634 48.541 162.573 48.4951C162.511 48.4492 162.387 48.4011 162.216 48.3574C162.046 48.3137 161.837 48.2763 161.618 48.2503C160.552 48.0941 159.441 47.9895 158.408 47.9484C157.537 47.9302 156.752 47.9404 155.736 47.9399L154.536 47.7913C154.556 47.7579 154.38 47.7122 154.424 47.6939C154.729 47.5226 155.065 47.3553 155.412 47.1712C154.859 47.0718 154.38 46.9519 154.029 46.825C153.679 46.6982 153.471 46.5696 153.431 46.4541C153.401 46.4192 153.409 46.3874 153.454 46.361C153.499 46.3346 153.58 46.3142 153.691 46.3012C154.007 46.2788 154.25 46.2361 154.403 46.1764C154.556 46.1166 154.614 46.0414 154.573 45.9565L153.64 45.6439C150.831 45.4208 148.072 45.2615 145.416 45.1688L143.017 45.0987C142.728 45.015 142.818 44.9784 143.09 44.9763C143.362 44.9741 144.128 44.9973 144.663 45.0098C145.125 45.0262 145.535 45.0154 145.853 44.9785C146.172 44.9416 146.389 44.8798 146.482 44.7992L145.677 44.4426C145.716 44.3759 145.772 44.2813 146.209 44.2876C146.507 44.2799 146.727 44.2463 146.833 44.1922C146.939 44.1382 146.925 44.0668 146.792 43.9896C146.772 43.9338 146.802 43.8829 146.881 43.8394C147.527 43.8358 148.17 43.8377 148.756 43.8208C149.029 43.8151 149.26 43.7945 149.432 43.7602C149.604 43.7259 149.715 43.6787 149.755 43.622C149.776 43.5666 149.725 43.5035 149.605 43.4378C149.485 43.3721 149.299 43.3057 149.064 43.2438C148.146 43.1673 147.305 43.1663 146.728 43.2411C146.522 43.2997 146.191 43.3317 145.779 43.3329C145.367 43.3341 144.893 43.3044 144.419 43.2478C143.877 43.1825 143.336 43.1538 142.894 43.1669C142.451 43.1799 142.136 43.2339 142.005 43.319C141.448 43.286 140.955 43.2607 140.468 43.2243C139.894 43.1784 139.352 43.1648 138.899 43.1852C138.175 43.1995 137.394 43.1911 136.575 43.1602C134.215 43.0828 131.852 43.0111 129.567 42.9789C128.962 42.9697 128.439 42.9945 127.841 42.9742C127.243 42.9539 126.77 43.0087 126.022 42.8982C125.88 42.881 125.736 42.87 125.604 42.866C125.471 42.862 125.352 42.8651 125.257 42.875C123.943 42.9624 122.404 42.9748 120.728 42.9114C118.433 42.8958 116.053 42.8519 113.754 42.8419C113.08 42.8505 112.443 42.8735 111.85 42.9106C111.398 42.9331 110.925 42.9483 110.434 42.9562C110.057 42.9632 109.696 42.9425 109.76 43.0638C109.823 43.1852 109.258 43.1092 108.933 43.0868C107.814 43.028 106.671 42.9483 105.516 42.8487C104.378 42.7405 103.262 42.6775 102.237 42.6636C101.496 42.6554 100.732 42.6863 99.78 42.5205C99.8163 42.4593 99.8525 42.3981 100.06 42.3342C99.2832 42.1584 98.3971 42.0071 97.4748 41.8929C96.5525 41.7787 95.6206 41.7048 94.756 41.6773L93.5639 41.3446C93.2704 41.3055 92.9707 41.277 92.6831 41.2609C92.3956 41.2448 92.1261 41.2414 91.8911 41.2508C91.7096 41.2557 91.4883 41.2433 91.2679 41.216C91.0475 41.1887 90.8428 41.1483 90.6914 41.1023C90.465 41.0437 90.1886 40.9931 89.8966 40.957C89.6045 40.9208 89.31 40.9006 89.0498 40.8989C88.2307 40.8627 87.3563 40.7792 86.5162 40.6568C86.2982 40.5851 86.1616 40.5109 86.1232 40.4436C86.0848 40.3762 86.1465 40.3186 86.3004 40.2777C86.5486 40.2056 86.6879 40.1137 86.71 40.0077C86.7321 39.9016 86.6365 39.7835 86.4289 39.6606C86.3226 39.5852 86.2871 39.5137 86.3245 39.4506C86.3619 39.3875 86.4714 39.334 86.6465 39.2934C87.3 39.1056 87.1252 39.0004 86.056 38.6888C85.8824 38.6369 85.673 38.5883 85.4412 38.5462C85.2095 38.5042 84.9604 38.4695 84.7098 38.4444C84.1218 38.3936 83.5418 38.3559 82.9805 38.3318C82.6648 38.2927 82.3411 38.3242 81.9773 38.3091C80.1585 38.2331 79.8923 38.1105 79.3033 37.8465L78.874 37.656C78.0778 37.5016 77.2071 37.3735 76.3245 37.2807C75.4419 37.1879 74.5695 37.1328 73.7701 37.1194C73.4523 37.1184 73.087 37.092 72.7301 37.0443C71.5687 36.8985 70.3926 36.7976 69.2795 36.7483C68.586 36.7206 67.8383 36.6488 67.1264 36.5415C66.4145 36.4343 65.7686 36.2962 65.2663 36.1438C64.8151 36.0065 64.2248 35.8833 63.5775 35.7913C62.8199 35.6975 62.7497 35.5873 63.1728 35.5023C63.5959 35.4174 64.3045 35.308 64.9336 35.2187C65.1524 35.1884 65.2881 35.139 65.3253 35.0762C65.3626 35.0133 65.3 34.9394 65.1446 34.8627C65.0448 34.7314 65.0275 34.6068 65.0931 34.492C65.1282 34.4443 65.104 34.3896 65.0221 34.3315C64.9403 34.2735 64.8027 34.2135 64.6186 34.1557C64.4345 34.0978 64.2083 34.0433 63.9551 33.996C63.7019 33.9486 63.4276 33.9095 63.1508 33.8812C61.9827 33.7365 60.8461 33.5957 59.655 33.49C59.1558 33.4402 58.6571 33.3784 58.1712 33.3062C57.1765 33.1277 56.1123 32.9797 55.0405 32.8707C54.5319 32.822 54.0345 32.7368 53.6562 32.6336C52.4629 32.3555 51.3633 32.0631 50.3775 31.7617C50.1398 31.6682 49.8289 31.577 49.4642 31.4938C49.0995 31.4106 48.6888 31.3372 48.258 31.2782C47.9107 31.2352 47.628 31.1405 47.3604 31.0775C47.1659 30.9316 47.1451 30.7966 47.3 30.6852C47.4549 30.5738 47.7805 30.4897 48.2461 30.4407C48.6876 30.3819 49.1008 30.3136 49.4824 30.2415C49.9425 30.1831 50.4894 30.1481 51.1029 30.1376C51.8294 30.1063 52.3666 30.0167 52.6445 29.8806C50.6556 29.6343 48.7642 29.2806 47.0208 29.3633L45.6962 29.1395C45.749 29.0505 45.7951 28.9726 45.838 28.9003C46.153 28.7686 46.2514 28.6026 46.1249 28.4162C46.0205 28.3261 46.0299 28.2441 46.1521 28.1785C46.2743 28.1129 46.505 28.066 46.8208 28.0426C48.6914 27.8025 50.8545 27.6404 52.6087 27.368C53.1587 27.3169 53.8025 27.2936 54.5132 27.2993C55.2006 27.2829 55.1719 27.1599 54.3807 27.0082C53.9367 26.9289 53.4841 26.8529 53.0246 26.7805C50.9985 26.7684 50.1731 27.132 47.861 27.0308L46.7894 26.5517C46.4996 26.5443 46.2183 26.5414 45.9474 26.543L42.0705 26.7376C41.7476 26.7474 41.4962 26.7807 41.345 26.8337C41.1937 26.8868 41.1487 26.9575 41.2149 27.0378C41.2411 27.136 41.1877 27.2261 41.0566 27.3048C40.972 27.3599 41.0262 27.4332 41.207 27.5086C41.6146 27.6785 41.0916 27.7033 40.7613 27.746C40.6769 27.7502 40.5795 27.7497 40.4749 27.7447C40.3703 27.7396 40.2604 27.7301 40.1518 27.7167C40.0431 27.7032 39.9378 27.6861 39.8419 27.6663C39.746 27.6465 39.6615 27.6244 39.5932 27.6013C39.0113 27.4397 38.5023 27.2691 37.9303 27.0908C38.3364 26.9201 37.8586 26.64 38.4923 26.4856C38.5632 26.4547 38.5915 26.4171 38.5756 26.3751C38.5597 26.3331 38.4999 26.2875 38.3999 26.2412C38.1418 26.1217 38.0189 26.0051 38.0435 25.9033C38.0682 25.8015 38.2395 25.7181 38.5402 25.6614L38.5764 25.6002C37.7834 25.3945 37.9935 25.2115 37.682 24.9938L36.9192 24.8515C35.0212 24.5089 35.0178 24.5145 33.3838 24.5271C33.0544 24.3967 33.4729 24.3769 33.7867 24.362L36.4149 24.2157C38.1333 24.118 39.9017 24.0504 41.8213 24.0134C43.7409 23.9765 45.8809 23.8533 47.8651 23.7647C47.9654 23.7578 48.0422 23.7442 48.0889 23.7251C48.1356 23.7059 48.1509 23.6817 48.1336 23.6546C48.0548 23.6252 47.9515 23.5969 47.8316 23.5717C47.7116 23.5465 47.5779 23.5251 47.4405 23.509C46.8091 23.4308 46.1612 23.3804 45.4884 23.315L44.234 23.2015L43.8481 23.0522C43.5969 22.9613 43.4254 22.8505 43.0913 22.7852C42.8159 22.7366 42.5171 22.6996 42.2258 22.6782C41.9345 22.6569 41.6614 22.6518 41.4351 22.6637C40.8075 22.6935 40.2397 22.7366 39.6403 22.7759C39.041 22.8151 38.7107 22.8578 38.191 22.877C37.1351 22.8858 36.1146 22.9089 35.134 22.9463C34.3081 23.0348 33.5441 23.1397 32.8469 23.2602C32.412 23.3079 32.0054 23.365 31.2628 23.3029C30.9104 23.2466 30.6066 23.1726 30.405 23.0941C30.2034 23.0155 30.1172 22.9375 30.1615 22.8739C30.2014 22.824 30.3142 22.7846 30.4893 22.7592C30.6644 22.7339 30.896 22.7235 31.1623 22.7291C31.9077 22.7199 32.597 22.6891 33.2162 22.6371C34.0782 22.543 35.1275 22.5024 36.3029 22.5178C36.7015 22.5313 36.9687 22.4808 37.3174 22.4643C37.6661 22.4477 37.9614 22.4067 38.3502 22.4369C39.5578 22.5148 40.1369 22.3954 40.8606 22.3179C41.1056 22.2835 41.2574 22.2279 41.2993 22.1572C41.3412 22.0865 41.2715 22.0035 41.098 21.9173C40.764 21.7456 40.3554 21.5729 39.8786 21.402C39.6332 21.3179 39.3187 21.2381 38.96 21.1689C38.6013 21.0996 38.2079 21.0426 37.8109 21.0025C37.5732 20.8974 37.4465 20.794 37.442 20.7017C37.4375 20.6093 37.5556 20.5311 37.7854 20.4739C38.3711 20.3433 38.8903 20.2106 40.2025 20.2835C40.8195 20.3114 41.4001 20.3167 41.9213 20.2993C43.0775 20.2755 44.4111 20.3277 45.7964 20.4508C46.1549 20.4824 46.5072 20.5039 46.843 20.5147C49.238 20.5904 51.5199 20.6282 53.8085 20.6548C55.0208 20.6676 56.2431 20.6638 57.5087 20.7011C60.4767 20.782 63.1785 20.7404 66.0433 20.7668C67.5437 20.7803 68.8867 20.7258 70.0018 20.6061C70.2189 20.5659 70.4054 20.5191 70.5591 20.4661C69.8202 20.327 69.0085 20.2169 68.2018 20.1462C67.3952 20.0756 66.6206 20.0469 65.9523 20.0627C65.5849 20.1017 65.11 20.1088 64.5806 20.0833C64.0512 20.0578 63.4881 20.0007 62.9541 19.9183L64.5067 19.8717C65.5362 19.85 66.5907 19.8432 67.592 19.8119C69.1827 19.7581 70.6569 19.672 72.3042 19.6371C73.6341 19.6051 74.8242 19.5231 75.8371 19.3939C76.5688 19.2996 77.4046 19.2328 78.3273 19.1947C78.9832 19.1744 78.9832 19.1744 79.4025 18.9815C79.0698 18.8567 78.6397 18.8392 78.2344 18.8368C75.805 18.7583 73.4931 18.7445 71.3457 18.7958C70.2622 18.8004 69.301 18.8533 68.5082 18.952C68.3141 18.9937 67.8175 18.9739 67.4188 18.9604C66.1692 18.9398 64.9749 18.9458 63.8501 18.9783C62.2951 19.0324 60.5632 19.0195 58.7217 18.9403C58.3725 18.8433 58.7744 18.8513 58.7942 18.8179C60.2205 18.7556 61.6185 18.6839 63.073 18.6312C63.4707 18.6124 63.8957 18.6031 64.3433 18.6034C66.0146 18.6361 67.4073 18.5455 68.3262 18.3442C68.3724 18.2663 68.9769 18.2755 69.2441 18.225C69.3755 18.1813 69.463 18.1298 69.5041 18.0721C69.1149 17.9283 68.6748 17.9275 68.336 17.9274C67.353 17.9434 66.4072 17.9739 65.5034 18.0185C64.6631 18.061 63.7331 18.0723 62.7384 18.0523C62.0042 18.033 61.3766 18.0628 60.6359 18.0546C60.2342 18.0375 59.8182 18.0101 59.3967 17.9728C59.8661 17.8726 60.5041 17.811 61.2659 17.7923C61.8436 17.7324 62.5659 17.7144 62.6582 17.5586C62.3854 17.4472 62.0814 17.4454 61.8374 17.4569C61.3293 17.4565 60.8386 17.4635 60.3678 17.478C59.3694 17.5096 58.2884 17.5101 57.1476 17.4793C56.5469 17.4678 55.9769 17.4712 55.4471 17.4896C54.2466 17.5141 53.0959 17.5687 51.9967 17.5938C49.7449 17.6195 47.6911 17.7115 45.5274 17.76C45.0459 17.772 44.6142 17.8141 43.9795 17.7415C43.3448 17.6688 43.3165 17.6594 43.2416 17.6142C43.064 17.539 43.0102 17.466 43.0913 17.4105C43.2172 17.3586 43.4625 17.3297 43.7834 17.329C45.7176 17.2465 47.5521 17.1306 49.2755 16.982C50.034 16.9523 50.6985 16.8916 51.246 16.8021C51.6801 16.7404 52.1952 16.6996 52.7749 16.6809C53.6181 16.6363 54.4971 16.6037 55.4084 16.5831C55.8324 16.572 56.1929 16.539 56.4688 16.4859C56.7446 16.4329 56.9302 16.361 57.0145 16.2744L55.8974 15.9867C55.7219 15.9733 55.5478 15.9617 55.3758 15.952L46.1033 16.1592L45.185 16.1649C44.1786 16.1477 43.9326 16.1053 42.9779 15.7721C45.1567 15.6937 46.8694 15.4652 47.9455 15.1093C47.6869 15.0711 47.4217 15.0382 47.1563 15.0116C45.4151 14.9274 43.7691 14.9051 42.2818 14.9454C41.3983 14.9494 40.4899 14.9384 39.5782 14.933C39.8448 14.7689 40.8663 14.8178 41.5321 14.7808C43.1229 14.723 44.5296 14.6034 45.7073 14.426C46.1133 14.3569 46.6212 14.3126 47.2079 14.2954C47.795 14.2894 48.2854 14.2476 48.6365 14.1734C48.9875 14.0993 49.1886 13.9951 49.2221 13.87C49.2774 13.7567 49.3966 13.6515 49.5778 13.5558C49.2572 13.42 48.748 13.29 48.1458 13.1901C47.5436 13.0902 46.8899 13.0274 46.3073 13.0133C45.0635 12.9574 43.7734 12.8659 42.4699 12.7411C41.8206 12.6782 41.1839 12.642 40.6011 12.6351C40.0873 12.6297 39.5031 12.5843 38.9379 12.5056C38.3726 12.427 37.8573 12.3195 37.4705 12.1996C36.9484 12.0513 36.4611 11.9014 35.9739 11.7514C35.4866 11.6015 34.9213 11.4121 34.3525 11.2281C33.851 11.1994 33.3627 11.1809 32.8942 11.1729C32.5296 11.1797 32.1043 11.1596 31.6683 11.1152C31.2323 11.0707 30.8038 11.0036 30.4335 10.9219C30.6507 10.8413 30.8962 10.7702 31.1549 10.6768C30.7999 10.5535 30.5424 10.4278 30.3983 10.3073C30.2542 10.1868 30.2263 10.074 30.3166 9.97582C30.3693 9.8868 29.9833 9.73747 29.85 9.61943C29.6783 9.51767 29.6461 9.42271 29.7574 9.34699C29.8688 9.27127 30.1187 9.21833 30.4743 9.19511C30.9153 9.15226 31.2742 9.08773 31.5363 9.00416C31.623 8.98247 31.6671 8.95276 31.6646 8.91775C31.6622 8.88274 31.6132 8.84355 31.5222 8.80376C31.4311 8.76398 31.3009 8.72486 31.1436 8.68999C30.9862 8.65512 30.8066 8.62561 30.6212 8.60417C30.0533 8.54337 29.4893 8.50396 28.9616 8.4882C28.0525 8.45922 27.1822 8.44102 26.3508 8.43359C25.4312 8.4224 24.4082 8.35339 23.3855 8.23355C22.47 8.12016 21.6492 8.01849 21.2015 7.8018C20.7539 7.58512 20.0381 7.59202 19.4877 7.43428C19.7969 7.29208 20.3464 7.19329 21.0808 7.14786C21.5614 7.13164 21.9625 7.08908 22.2585 7.02289C22.5545 6.95671 22.7388 6.86837 22.7996 6.76354L21.1287 6.32369C19.7943 6.11661 19.0559 6.27599 17.6141 6.19297L19.0997 6.0306C19.1296 6.01455 19.1407 5.9957 19.1327 5.97496C18.9885 5.64655 18.759 5.57633 17.2403 5.39421L16.3879 5.28864L15.0389 5.16336C14.8228 5.09605 14.6734 5.02587 14.6055 4.95982C14.5376 4.89377 14.5536 4.83417 14.652 4.78699C14.8496 4.70763 14.9097 4.60623 14.8267 4.49211C14.6959 4.41652 14.6851 4.34684 14.7962 4.29515C14.9073 4.24345 15.1333 4.21302 15.435 4.20914C15.6758 4.20312 15.6937 4.11576 15.8246 4.06629C15.9548 3.99811 16.1775 3.94579 16.4777 3.91289C16.7779 3.87999 17.1484 3.86728 17.5642 3.87564C18.7899 3.88247 19.9414 3.85688 20.9981 3.79931L20.8087 3.77585C21.9102 3.82639 22.94 3.83251 23.8479 3.79394C24.7577 3.74539 25.9254 3.77653 26.8917 3.74692C27.6785 3.75372 28.2775 3.68652 28.5616 3.55959C28.8367 3.4384 29.8366 3.46668 30.6022 3.48985C31.0558 3.50484 31.4942 3.51119 31.9127 3.50883C32.4744 3.4814 33.1767 3.50725 33.9025 3.58209C34.1203 3.60509 34.3348 3.61726 34.5254 3.61743C36.3706 3.64889 38.2124 3.6859 40.0326 3.70232C40.4528 3.69287 40.9454 3.71452 41.4528 3.76474C41.666 3.78654 41.8735 3.79558 42.0475 3.79062C44.9236 3.74074 48.1691 3.868 50.9886 3.79918C51.3304 3.78292 51.7087 3.77954 52.1129 3.78913C53.0212 3.82956 53.81 3.80354 54.3595 3.71503C54.656 3.66795 55.0361 3.64201 55.4755 3.63885C55.915 3.6357 56.4042 3.65541 56.9119 3.69672C57.7568 3.75142 58.5377 3.75735 59.1721 3.71389C60.4092 3.67374 61.7101 3.65723 63.0646 3.66449C63.4797 3.67151 63.8445 3.65591 64.1309 3.61888C64.4173 3.58186 64.6175 3.52441 64.716 3.45098C64.3834 3.32617 64.0197 3.31099 63.6743 3.32196C62.3356 3.29352 61.0003 3.25951 59.6866 3.24611C58.5108 3.20782 57.3826 3.19612 56.3186 3.21117C55.7903 3.22815 55.131 3.18944 54.4847 3.10348C53.6926 2.99462 52.8768 2.94054 52.2022 2.95217C51.7021 2.95506 51.1742 2.94568 50.6261 2.92418C50.2753 2.89824 49.9158 2.85371 49.5843 2.79515C49.4528 2.76972 49.3096 2.74833 49.164 2.73236C49.0184 2.71639 48.8736 2.7062 48.7387 2.70242C48.6038 2.69864 48.4818 2.70135 48.3806 2.71041C48.2794 2.71946 48.2013 2.73464 48.151 2.75498C47.6436 2.92504 46.5089 2.83826 45.5373 2.81945C44.0813 2.53162 42.9977 2.70198 41.6368 2.53941C41.5292 2.52863 41.4232 2.5221 41.3252 2.52024C41.2273 2.51838 41.1395 2.52121 41.0671 2.52857C38.4337 2.62642 35.3644 2.54487 32.5995 2.57866C32.2946 2.5836 31.9406 2.56667 31.578 2.52978C29.2077 2.28564 26.9288 2.21632 25.1867 2.3354C24.9748 2.34612 24.7337 2.34658 24.4743 2.33675C23.2833 2.23972 22.1443 2.20103 21.1525 2.22392C19.598 2.21653 18.1034 2.22252 16.524 2.20009C15.4353 2.16818 14.4802 2.20227 13.7543 2.29898C13.7313 2.33793 13.2478 2.29596 12.8774 2.2919C12.6644 2.19385 12.4798 2.1053 12.2602 2.01838C12.0639 1.91085 11.7698 1.80203 11.3981 1.69932C11.0263 1.5966 10.5855 1.50239 10.1054 1.42304C9.28457 1.32138 9.20248 1.17386 9.77684 1.11958C11.2573 0.940019 13.1188 0.866526 15.2247 0.904497C16.985 0.907531 18.777 0.914482 20.5623 0.932555C21.6036 0.948059 22.7014 0.982496 23.7145 0.988526C24.0563 1.00178 24.4075 1.0213 24.7643 1.04689C25.2021 1.08399 25.6272 1.10421 26.0167 1.10646C27.2674 1.07521 28.6631 1.10243 30.1373 1.18682C30.6773 1.20522 31.1958 1.21142 31.6851 1.20533C32.8427 1.18243 34.0977 1.19928 35.4169 1.25546C36.2368 1.28714 37.0318 1.3037 37.7936 1.30498C38.0627 1.30844 38.2818 1.28183 38.5409 1.30198C40.822 1.51283 42.4372 1.36053 44.4901 1.44161C45.4879 1.46422 46.4412 1.46428 47.3365 1.44181C49.0839 1.44289 50.8799 1.46601 52.7175 1.51106C55.1474 1.58508 57.3992 1.5594 59.7193 1.58996C60.1773 1.59638 60.6196 1.59529 61.0429 1.58668C63.1019 1.5298 65.3383 1.54186 67.6975 1.62257C68.2332 1.63423 68.7143 1.61997 69.1107 1.5807C69.5072 1.54143 69.8104 1.47798 70.0015 1.39434C70.0823 1.33693 70.0299 1.26237 69.8545 1.18503C69.5633 1.08626 69.2344 0.989492 68.8734 0.896312L55.7409 0.583634C55.1893 0.567307 54.6514 0.558516 54.1299 0.557302C52.5962 0.554584 51.0152 0.530259 49.395 0.48445C47.7939 0.44142 46.2644 0.449058 44.7132 0.436103C44.2563 0.431763 43.7873 0.421523 43.3082 0.405413C40.0695 0.27791 36.9114 0.200034 33.8561 0.17234C32.5707 0.168411 31.1821 0.109895 29.8718 0.0909291C28.5614 0.0719612 26.7695 0.0650181 25.215 0.0576252L20.4024 0.0587596C19.4558 0.0549871 18.5341 0.0662466 17.6158 0.0719466C16.5013 -0.334817 16.1173 -0.430158 14.6302 -0.608366C14.1215 -0.674103 13.604 -0.713332 13.1385 -0.721461C11.6622 -0.689306 9.80996 -0.82316 8.41008 -0.805439C7.56537 -0.81418 6.84859 -0.768993 6.33313 -0.674502C5.88567 -0.600345 5.374 -0.541666 4.80601 -0.499352C3.25009 -0.847328 3.11297 -1.07333 4.28338 -1.16128C4.60048 -1.18172 5.03727 -1.1754 5.26625 -1.2187C5.39764 -1.24507 5.57713 -1.26015 5.79042 -1.26276C6.00371 -1.26537 6.24489 -1.25543 6.49505 -1.23372C7.2846 -1.17678 8.02463 -1.16338 8.64089 -1.19489C9.22086 -1.23659 9.93178 -1.23492 10.7051 -1.19005C11.2734 -1.11967 11.7728 -1.21905 12.2643 -1.24776C12.7557 -1.27648 13.159 -1.32805 13.9266 -1.2509C14.0672 -1.23554 14.2067 -1.22632 14.3345 -1.22394C14.4623 -1.22157 14.5751 -1.22611 14.664 -1.23721C15.4884 -1.28689 16.4722 -1.28167 17.5354 -1.22197C19.1662 -1.16322 20.6962 -1.16102 22.0725 -1.21544C22.8963 -1.26305 23.5987 -1.34749 24.1523 -1.46546C24.3031 -1.50492 24.5272 -1.52858 24.8029 -1.53417C26.1876 -1.50956 27.6912 -1.41692 29.2166 -1.26224C29.7913 -1.20026 30.3652 -1.15123 30.9261 -1.1162C32.0789 -1.03839 33.1939 -0.99479 34.2381 -0.986686C35.7553 -0.985402 37.335 -0.955464 38.9631 -0.897142C39.9679 -0.864669 40.9361 -0.852684 41.8562 -0.861316C42.8019 -0.865385 43.8116 -0.840615 44.8624 -0.78758C45.9074 -0.744363 46.8284 -0.769263 47.5142 -0.85927C47.74 -0.907771 47.922 -0.965365 48.0565 -1.03098C46.5264 -1.24448 44.944 -1.35299 43.6277 -1.33464C43.1278 -1.34879 42.7127 -1.33451 42.1859 -1.41767L42.1694 -1.38985C42.0646 -1.3718 41.9064 -1.36755 41.7251 -1.37789C41.5437 -1.38824 41.3519 -1.41246 41.1861 -1.44595C41.2487 -1.55166 41.3081 -1.6518 41.3509 -1.72413C42.3538 -1.71137 43.3275 -1.7124 44.2671 -1.72724C45.0592 -1.74858 46.1345 -1.56166 46.82 -1.63202C48.1573 -1.54403 49.0087 -1.66552 50.2078 -1.63046C51.407 -1.59541 52.7278 -1.4796 53.927 -1.44455C54.9734 -1.42531 55.9894 -1.42113 56.9694 -1.43202C57.3076 -1.44731 57.6976 -1.44373 58.1153 -1.42148C58.7025 -1.37963 59.2487 -1.37261 59.6912 -1.40125C60.1337 -1.42988 60.4546 -1.49301 60.6172 -1.58339C60.4641 -1.66805 60.2577 -1.77721 60.0198 -1.89029C60.4576 -1.98321 61.1224 -2.02233 61.9157 -2.00184L63.0367 -2.00633C63.3338 -2.00388 63.5609 -2.029 63.671 -2.07649C63.7811 -2.12399 63.766 -2.19022 63.6285 -2.2615C61.5029 -2.62031 61.4247 -2.65986 59.8646 -2.42907L57.7932 -2.53632L57.8281 -2.53796ZM85.845 -1.55232L85.6872 -1.57187L85.845 -1.55232ZM343.978 36.623L343.941 36.6842L343.981 36.6174L344.328 36.6604L344.351 36.6215L343.978 36.623ZM293.557 9.799C293.067 9.73223 292.571 9.67085 292.074 9.61522C291.943 9.6066 291.821 9.60465 291.718 9.60954C291.615 9.61444 291.534 9.62602 291.481 9.64333C291.441 9.71009 291.719 9.75641 291.971 9.78769C292.29 9.82979 292.615 9.85655 292.914 9.8652C293.213 9.87384 293.474 9.86408 293.67 9.83689L293.956 9.81253L293.557 9.799ZM40.7374 26.0709C41.0605 26.0821 41.367 26.084 41.6492 26.0763C42.9011 26.0224 44.0997 25.9439 45.3832 25.8938C47.0027 25.7668 48.8636 25.715 50.8961 25.7405C51.6902 25.753 52.361 25.7118 52.8303 25.6218C53.1113 25.5735 53.4739 25.5452 53.8961 25.5388L59.2695 25.3921C59.6016 25.3617 59.8888 25.319 60.1242 25.2651C59.6507 25.2064 59.335 25.1673 59.1455 25.1439C58.7525 25.1373 58.4147 25.1551 58.166 25.1957C57.8988 25.2645 57.4472 25.2917 56.9008 25.2719C56.3492 25.2556 55.8113 25.2468 55.2899 25.2456C54.3051 25.249 53.3136 25.2636 52.3256 25.2726C51.9411 25.4639 50.8065 25.3771 49.8349 25.3583L49.0843 25.3668C46.6308 25.466 44.2871 25.6024 42.0646 25.7754C41.6351 25.8047 41.2651 25.8514 40.9659 25.9141C40.8532 25.9629 40.8171 26.0239 40.8604 26.0921L40.7026 26.0725L40.7374 26.0709ZM150.301 44.3585C150.897 44.3715 151.516 44.3983 152.152 44.4384C152.641 44.4793 153.119 44.5042 153.565 44.5119C156.068 44.5548 158.675 44.6538 161.353 44.8077C161.704 44.831 162.04 44.8424 162.35 44.8415L164.542 44.8025C165.233 44.7805 165.246 44.7583 164.743 44.4631C164.326 44.4058 163.904 44.3535 163.48 44.3067C163.228 44.2754 162.817 44.2246 162.721 44.2724C162.136 44.4029 161.067 44.3184 160.169 44.2907C157.568 44.2194 154.885 44.1141 152.259 44.0277C151.704 44.0066 151.166 43.9959 150.652 43.9958C150.332 43.9914 150.041 43.9997 149.79 44.0205C149.717 44.0226 149.655 44.0288 149.61 44.0386C149.564 44.0484 149.536 44.0617 149.527 44.0774C149.517 44.0932 149.527 44.1112 149.556 44.1302C149.584 44.1491 149.63 44.1686 149.691 44.1874C149.906 44.2531 150.154 44.316 150.428 44.3741L150.301 44.3585ZM169.355 1.51677L171.917 1.48178C172.224 1.47802 172.485 1.43863 172.814 1.45548C174.568 1.50887 176.192 1.494 177.618 1.4115C178.103 1.37783 178.671 1.3711 179.29 1.39167C181.186 1.45264 182.974 1.45515 184.606 1.39912C185.661 1.38788 186.648 1.35012 187.553 1.2864C187.623 1.2716 187.666 1.25152 187.681 1.22752C187.695 1.20352 187.68 1.17616 187.636 1.14731C187.624 1.12908 187.593 1.10947 187.545 1.08984C187.496 1.07021 187.432 1.051 187.355 1.03356C187.278 1.01613 187.192 1.00087 187.101 0.988832C187.01 0.976795 186.918 0.968264 186.829 0.963837C185.686 0.877584 184.601 0.847537 183.662 0.876132C182.792 0.910345 181.855 0.920357 180.866 0.90601C179.919 0.902236 179.277 1.0138 178.107 0.928673C177.613 0.900639 177.176 0.909869 176.872 0.954812C176.259 1.02931 175.404 1.03345 174.459 0.966505C173.893 0.932625 173.353 0.918096 172.858 0.923471C171.657 0.947963 170.51 0.996964 169.397 1.04431C169.047 1.05527 168.671 1.05678 168.277 1.04881L162.706 0.956099C161.367 0.927658 160.032 0.893654 158.718 0.88025C157.644 0.851148 156.644 0.860262 155.754 0.907274C154.805 0.956684 153.77 0.976743 152.669 0.967073C150.959 0.994114 149.258 1.00445 147.396 1.00082C146.209 1.00305 144.993 0.995824 143.753 0.973551C143.125 0.944883 142.592 0.968228 142.257 1.03909C142.053 1.09743 141.573 1.0499 141.174 1.03636C139.048 0.905868 137.054 0.874949 135.331 0.945755C135.111 0.957295 134.87 0.961471 134.612 0.958215C132.953 0.955785 131.234 0.939968 129.642 0.939793C129.222 0.945295 128.828 0.96039 128.463 0.984888C128.502 1.02486 128.613 1.06818 128.774 1.10586C128.935 1.14355 129.132 1.17271 129.326 1.1873C130.832 1.29896 132.286 1.35795 133.627 1.36179C135.86 1.34756 138.199 1.37954 140.619 1.45739C142.498 1.53586 144.21 1.51934 145.63 1.40905C146.739 1.32675 148.183 1.35771 149.712 1.49662C150.366 1.56296 151.002 1.58949 151.531 1.57258C152.04 1.5504 152.624 1.55578 153.25 1.5884C154.568 1.65044 155.836 1.67922 157.028 1.67417C158.194 1.65134 159.281 1.58895 160.479 1.57002C161.676 1.55109 163.499 1.56194 164.975 1.52978C166.452 1.49763 167.911 1.49329 169.355 1.51677ZM63.1824 -1.73747C63.3176 -1.56545 63.7964 -1.45838 64.3114 -1.41251C66.087 -1.20883 67.8424 -1.12216 69.2829 -1.16704C70.061 -1.22964 71.0984 -1.20554 72.191 -1.09948C73.4634 -0.989229 74.6526 -0.970945 75.5492 -1.04785C75.7688 -1.06129 75.937 -1.0897 76.0388 -1.13054C76.0585 -1.16393 76.0948 -1.22512 76.1014 -1.23625C76.0072 -1.26447 75.8917 -1.29062 75.7637 -1.31267C75.6358 -1.33473 75.4989 -1.35211 75.3635 -1.36347L69.4822 -1.56039L68.4573 -1.60372C66.5853 -1.71725 64.8015 -1.76247 63.1824 -1.73747ZM74.751 0.985269C75.6689 1.26617 75.6721 1.2606 76.1424 1.32481C78.4111 1.59153 80.6782 1.73552 82.674 1.73963C83.1176 1.73881 83.4941 1.7117 83.7715 1.66056C83.9142 1.65363 84.0051 1.63161 84.0242 1.5993C84.0434 1.56699 83.9893 1.52701 83.8737 1.48809L83.1438 1.29019C81.8182 1.20452 80.5116 1.13645 79.232 1.08638C77.7421 1.02726 76.4218 1.02498 74.8772 1.0009L74.751 0.985269ZM150.191 43.1147C151.046 43.5013 151.05 43.4957 152.482 43.5954C153.48 43.6661 154.448 43.7076 155.357 43.7186C156.468 43.7308 157.607 43.7525 158.715 43.7702C158.986 43.7826 159.215 43.7723 159.358 43.7416C159.502 43.7108 159.549 43.6616 159.492 43.6037C159.346 43.5407 159.119 43.4799 158.846 43.4309C158.574 43.382 158.272 43.3479 157.991 43.3342L157.386 43.325C156.652 43.3057 155.89 43.277 155.181 43.2728C154.72 43.2888 154.187 43.2764 153.623 43.2366C153.059 43.1967 152.479 43.1305 151.928 43.0431L150.191 43.1147ZM79.3182 -1.23198C79.5466 -1.16503 79.8049 -1.10091 80.0862 -1.04131C81.1756 -0.876142 82.3285 -0.782331 83.3191 -0.778271C83.7874 -0.76804 84.2158 -0.804572 84.6926 -0.751484C85.5479 -0.680545 86.3767 -0.642757 87.1344 -0.640165C87.1344 -0.640165 87.3468 -0.655655 87.4166 -0.658963L87.5616 -0.903759C87.203 -0.960468 86.8289 -1.0068 86.4567 -1.04061C85.2075 -1.10574 83.9801 -1.15027 82.756 -1.20036C81.5318 -1.25045 81.1049 -1.27346 80.3044 -1.29497C79.9473 -1.28315 79.617 -1.26205 79.3182 -1.23198ZM52.2679 29.201L53.9026 29.702C54.4315 29.7456 54.9257 29.7534 55.3099 29.7245C55.6941 29.6955 55.9472 29.6313 56.0308 29.5416C56.1654 29.4996 56.1789 29.4374 56.0684 29.3681C55.9579 29.2987 55.7319 29.2276 55.438 29.1696C55.1551 29.1008 54.8322 29.0392 54.4891 28.9885C54.1461 28.9378 53.7904 28.8991 53.444 28.8748L52.2679 29.201ZM65.8781 26.7063C64.8089 26.6213 63.7863 26.5866 62.8884 26.6047C62.3227 26.6544 61.5561 26.6386 60.746 26.5603C59.2726 26.4045 57.8522 26.3613 56.7847 26.44C56.7847 26.44 56.745 26.5067 56.5641 26.5261C56.3832 26.5455 57.1008 26.5926 57.2587 26.6122C58.4164 26.66 59.5807 26.6967 60.5871 26.7139C61.212 26.7131 61.8729 26.7289 62.5586 26.761C63.5019 26.8104 64.3966 26.8264 65.2076 26.8084C65.2076 26.8084 65.5214 26.7935 65.8748 26.7118L65.8781 26.7063ZM180.059 0.609016C179.548 0.514654 178.994 0.437962 178.439 0.384696C177.884 0.331432 177.341 0.302981 176.852 0.301465C176.478 0.296542 176.175 0.321456 175.991 0.37227C175.808 0.423082 175.754 0.496896 175.839 0.582037C176.218 0.628957 176.723 0.691517 177.007 0.726707C177.992 0.723263 178.832 0.678016 180.059 0.609016ZM275.653 8.56089C275.243 8.48493 274.792 8.42685 274.35 8.39329C273.909 8.35973 273.495 8.35204 273.156 8.37109C272.982 8.37936 273.1 8.46567 273.07 8.51575C273.051 8.5271 273.051 8.54122 273.071 8.55663C273.091 8.57204 273.13 8.58817 273.183 8.60333C273.236 8.61849 273.303 8.63212 273.375 8.64279C273.447 8.65347 273.522 8.6608 273.593 8.66401C274.037 8.69674 274.457 8.70648 274.814 8.69237C275.171 8.67825 275.455 8.64073 275.64 8.58315L275.653 8.56089ZM282.058 9.64679C281.995 9.60196 281.86 9.55525 281.678 9.5152C281.496 9.47515 281.28 9.44445 281.069 9.42875C280.696 9.42664 280.357 9.43907 280.064 9.46557C279.747 9.48601 279.975 9.61579 280.404 9.69279C280.586 9.72369 280.78 9.7478 280.971 9.76319C281.162 9.77858 281.345 9.78483 281.505 9.78145C281.664 9.77806 281.797 9.76513 281.892 9.74369C281.987 9.72224 282.042 9.69288 282.051 9.65792L282.058 9.64679ZM95.9455 -0.755217C94.9899 -0.915374 94.2544 -0.875082 93.4454 -0.939453C92.6363 -1.00382 92.437 -1.0106 92.5454 -0.907591C92.6538 -0.804588 93.2084 -0.825477 93.5556 -0.782466C94.0249 -0.725395 94.4969 -0.692624 94.9189 -0.687811C95.341 -0.682997 95.6964 -0.706337 95.9455 -0.755217ZM295.071 26.3435C294.564 26.3076 294.069 26.2822 293.591 26.2677C293.528 26.2826 293.488 26.3021 293.475 26.325C293.461 26.348 293.474 26.3739 293.511 26.4013C293.511 26.4013 293.836 26.4832 294.025 26.5067C294.723 26.5871 294.757 26.4719 295.071 26.3435ZM366.608 41.2652C366.951 41.3733 367.11 41.4468 367.385 41.4987C367.511 41.5167 367.641 41.5298 367.766 41.537C367.891 41.5442 368.007 41.5453 368.106 41.5402C368.226 41.5091 368.254 41.4614 368.185 41.4067C368.185 41.4067 367.836 41.3097 367.703 41.3052C367.324 41.2823 366.956 41.2689 366.608 41.2652ZM79.68 -1.6709C78.9539 -1.76083 78.2593 -1.84686 77.7566 -1.74191C78.9096 -1.62897 78.9096 -1.62896 79.68 -1.6709ZM91.4405 -0.644315C90.7073 -0.836646 90.2771 -0.8541 89.9251 -0.832001C89.8503 -0.826436 89.8008 -0.81403 89.7841 -0.796667C89.7674 -0.779306 89.7844 -0.757932 89.8325 -0.735775C89.8806 -0.713619 89.9573 -0.69189 90.0508 -0.673871C90.1444 -0.655853 90.2498 -0.642528 90.3511 -0.635913C90.7334 -0.630376 91.0981 -0.633187 91.4405 -0.644315ZM129.177 -0.562985C129.193 -0.590803 129.213 -0.624184 129.024 -0.647644C128.974 -0.659554 128.916 -0.669795 128.855 -0.677345C128.794 -0.684895 128.732 -0.689482 128.676 -0.69065C128.676 -0.69065 128.657 -0.657267 128.643 -0.635013L129.177 -0.562985ZM155.382 45.6208L154.96 45.6462L155.15 45.6696L155.649 45.6838L155.382 45.6208ZM303.868 9.21272C303.71 9.19317 303.552 9.17362 303.529 9.21257C303.496 9.21859 303.475 9.2273 303.469 9.23795C303.462 9.24859 303.471 9.26087 303.493 9.27376C303.493 9.27376 303.714 9.30114 303.808 9.31287L303.868 9.21272ZM279.284 9.5242C279.18 9.52197 279.087 9.52458 279.009 9.53187L278.989 9.56525L279.304 9.60435L279.284 9.5242ZM65.0443 17.4779C64.9223 17.4576 64.7931 17.4416 64.6655 17.431L64.5076 17.4114C64.5076 17.4114 64.6772 17.4683 64.7719 17.48C64.8666 17.4917 64.943 17.4773 65.0443 17.4779Z" fill="#DF6951"/>
</g>
</svg>
