<svg width="20" height="20" viewBox="0 0 20 20" fill="none" xmlns="http://www.w3.org/2000/svg">
<path d="M18.0683 2.76033L11.1933 17.7603C11.1358 17.886 11.0383 17.989 10.9159 18.0533C10.7936 18.1177 10.6534 18.1396 10.5173 18.1158C10.3812 18.092 10.2568 18.0237 10.1636 17.9217C10.0704 17.8197 10.0136 17.6896 10.0022 17.5519L9.42095 10.579L2.44801 9.99771C2.3103 9.98627 2.18025 9.92951 2.07822 9.8363C1.9762 9.7431 1.90793 9.61871 1.88411 9.48258C1.86029 9.34646 1.88226 9.20628 1.94657 9.08397C2.01089 8.96166 2.11393 8.86411 2.23958 8.80658L17.2396 1.93158C17.3555 1.87844 17.485 1.86205 17.6105 1.88461C17.7361 1.90718 17.8517 1.96762 17.9419 2.05781C18.0321 2.14801 18.0925 2.26365 18.1151 2.38919C18.1377 2.51474 18.1213 2.64418 18.0681 2.76014L18.0683 2.76033Z" fill="#080809"/>
</svg>
