<svg width="36" height="36" viewBox="0 0 36 36" fill="none" xmlns="http://www.w3.org/2000/svg">
<circle cx="18" cy="18" r="18" fill="#F5F5F5"/>
<path d="M23.3434 13.2425L17.0259 19.5833C16.9535 19.5414 16.8773 19.5062 16.7984 19.4783L12.6276 18.0667C12.5014 18.0351 12.3895 17.9622 12.3095 17.8597C12.2295 17.7572 12.186 17.6309 12.186 17.5008C12.186 17.3708 12.2295 17.2445 12.3095 17.142C12.3895 17.0395 12.5014 16.9666 12.6276 16.935L22.9759 13.2542C23.0435 13.2312 23.1145 13.2194 23.1859 13.2192C23.2393 13.2183 23.2925 13.2262 23.3434 13.2425Z" fill="#84829A"/>
<path d="M23.7459 14.0242L20.065 24.3842C20.0244 24.5049 19.9455 24.6091 19.8401 24.6807C19.7348 24.7523 19.6089 24.7875 19.4817 24.7808C19.353 24.7867 19.226 24.7499 19.1205 24.676C19.015 24.6021 18.9369 24.4954 18.8984 24.3725L17.51 20.2017C17.4821 20.1228 17.447 20.0466 17.405 19.9742L23.7575 13.6567C23.7934 13.7772 23.7893 13.9061 23.7459 14.0242Z" fill="#84829A"/>
</svg>
