<svg width="400" height="361" viewBox="0 0 400 361" fill="none" xmlns="http://www.w3.org/2000/svg">
<mask id="mask0_8_14" style="mask-type:alpha" maskUnits="userSpaceOnUse" x="0" y="0" width="400" height="361">
<rect width="400" height="361" fill="#D9D9D9"/>
</mask>
<g mask="url(#mask0_8_14)">
<g opacity="0.1">
<mask id="mask1_8_14" style="mask-type:alpha" maskUnits="userSpaceOnUse" x="-80" y="0" width="480" height="361">
<rect x="399.5" y="0.5" width="360" height="479" transform="rotate(90 399.5 0.5)" fill="url(#paint0_linear_8_14)" stroke="#6246E5"/>
</mask>
<g mask="url(#mask1_8_14)">
<path d="M156.505 453.92C87.1724 453.92 30.9658 397.635 30.9658 328.202C30.9658 258.77 87.1724 202.484 156.505 202.484C225.838 202.484 282.045 258.77 282.045 328.202C282.045 397.635 225.838 453.92 156.505 453.92Z" stroke="#6246E5"/>
<path d="M169.773 458.902C92.1965 458.902 29.3075 395.925 29.3075 318.238C29.3075 240.55 92.1965 177.573 169.773 177.573C247.349 177.573 310.238 240.55 310.238 318.238C310.238 395.925 247.349 458.902 169.773 458.902Z" stroke="#6246E5"/>
<path d="M180.552 463.885C95.6488 463.885 26.8198 394.959 26.8198 309.934C26.8198 224.909 95.6488 155.983 180.552 155.983C265.456 155.983 334.285 224.909 334.285 309.934C334.285 394.959 265.456 463.885 180.552 463.885Z" stroke="#6246E5"/>
<path d="M196.308 467.206C104.993 467.206 30.9662 393.076 30.9662 301.63C30.9662 210.184 104.993 136.054 196.308 136.054C287.622 136.054 361.649 210.184 361.649 301.63C361.649 393.076 287.622 467.206 196.308 467.206Z" stroke="#6246E5"/>
<path d="M211.648 470.528C114.15 470.528 35.112 391.378 35.1121 293.741C35.1121 196.104 114.15 116.955 211.648 116.955C309.145 116.955 388.183 196.104 388.183 293.741C388.183 391.378 309.145 470.528 211.648 470.528Z" stroke="#6246E5"/>
<path d="M229.061 474.68C121.947 474.68 35.112 387.723 35.1121 280.456C35.1121 173.188 121.947 86.2315 229.061 86.2315C336.175 86.2315 423.01 173.188 423.01 280.456C423.01 387.723 336.175 474.68 229.061 474.68Z" stroke="#6246E5"/>
</g>
</g>
</g>
<defs>
<linearGradient id="paint0_linear_8_14" x1="656.035" y1="13.4669" x2="407.704" y2="484.066" gradientUnits="userSpaceOnUse">
<stop stop-color="#747DEF"/>
<stop offset="1" stop-color="#5E3BE1"/>
</linearGradient>
</defs>
</svg>
