<svg width="264" height="352" viewBox="0 0 264 352" fill="none" xmlns="http://www.w3.org/2000/svg">
<g opacity="0.1">
<mask id="mask0_202_1506" style="mask-type:alpha" maskUnits="userSpaceOnUse" x="0" y="0" width="264" height="352">
<path d="M0.5 0.5H240C252.979 0.5 263.5 11.0213 263.5 24V351.021H50C22.6619 351.021 0.5 328.86 0.5 301.521V0.5Z" fill="url(#paint0_linear_202_1506)" stroke="#6246E5"/>
</mask>
<g mask="url(#mask0_202_1506)">
<path d="M330.819 178.32C330.819 229.022 289.717 270.124 239.015 270.124C188.314 270.124 147.212 229.022 147.212 178.32C147.212 127.618 188.314 86.5167 239.015 86.5167C289.717 86.5167 330.819 127.618 330.819 178.32Z" stroke="#6246E5"/>
<circle cx="231.728" cy="168.604" r="102.734" stroke="#6246E5"/>
<circle cx="225.656" cy="160.709" r="112.45" stroke="#6246E5"/>
<circle cx="219.583" cy="149.171" r="120.952" stroke="#6246E5"/>
<circle cx="213.814" cy="137.937" r="129.15" stroke="#6246E5"/>
<circle cx="204.098" cy="125.185" r="141.902" stroke="#6246E5"/>
</g>
</g>
<defs>
<linearGradient id="paint0_linear_202_1506" x1="187.239" y1="9.86233" x2="5.23235" y2="354.286" gradientUnits="userSpaceOnUse">
<stop stop-color="#747DEF"/>
<stop offset="1" stop-color="#5E3BE1"/>
</linearGradient>
</defs>
</svg>
